<?xml version="1.0" encoding="UTF-8"?>
<!-- Generator: Adobe Illustrator 19.0.1, SVG Export Plug-In . SVG Version: 6.00 Build 0)  -->
<!DOCTYPE svg PUBLIC "-//W3C//DTD SVG 1.1//EN" "http://www.w3.org/Graphics/SVG/1.1/DTD/svg11.dtd">
<svg version="1.1" id="Layer_1" xmlns="http://www.w3.org/2000/svg" xmlns:xlink="http://www.w3.org/1999/xlink" x="0px" y="0px" viewBox="0 0 248.4 165.1" enable-background="new 0 0 248.4 165.1" xml:space="preserve">
<g>
	<path fill-rule="evenodd" clip-rule="evenodd" fill="#FFFFFF" d="M124.2,163.6c-67.7,0-122.7-36.4-122.7-81.1s55-81.1,122.7-81.1   s122.7,36.4,122.7,81.1S191.8,163.6,124.2,163.6z"/>
	<path d="M124.2,3C191,3,245.4,38.7,245.4,82.6s-54.4,79.6-121.2,79.6S3,126.4,3,82.6S57.4,3,124.2,3 M124.2,0C55.6,0,0,37,0,82.6   s55.6,82.6,124.2,82.6s124.2-37,124.2-82.6S192.8,0,124.2,0L124.2,0z"/>
</g>
<g>
	<g>
		<path fill-rule="evenodd" clip-rule="evenodd" fill="#E2231A" d="M124.2,152.7c-15.4,0-30.5-2.1-44.7-6.3    c-20-6-36.6-15.5-48.1-27.6c-10.5-11.1-16.2-24-16.2-36.4c0-12.4,5.8-25.3,16.2-36.4c11.4-12.1,28-21.7,48.1-27.6    c14.1-4.2,29.2-6.3,44.7-6.3c15.6,0,30.6,2.1,44.7,6.3c20,6,36.6,15.5,48.1,27.7c10.4,11.1,16.2,24,16.2,36.4    c0,12.4-5.8,25.3-16.2,36.4c-11.4,12.1-28,21.7-48.1,27.6C154.7,150.5,139.6,152.7,124.2,152.7z"/>
		<path d="M124.2,15.9c15.6,0,30.4,2.2,43.6,6.2c41.6,12.4,61.4,38.3,61.4,60.2c0,21.8-19.8,47.8-61.4,60.2    c-13.2,3.9-28,6.2-43.6,6.2c-15.6,0-30.3-2.3-43.6-6.2c-41.6-12.4-61.4-38.3-61.4-60.2c0-21.9,19.9-47.8,61.4-60.2    C93.8,18.1,108.6,15.9,124.2,15.9 M124.2,7.9c-15.9,0-31.4,2.2-45.8,6.5c-20.7,6.2-37.9,16.1-49.8,28.7    C17.3,55,11.2,68.9,11.2,82.3c0,13.4,6.1,27.3,17.3,39.1C40.4,134,57.6,144,78.3,150.2c14.6,4.3,30,6.5,45.9,6.5    c15.8,0,31.3-2.2,45.9-6.5c20.7-6.2,37.9-16.1,49.8-28.7c11.2-11.8,17.3-25.7,17.3-39.1c0-13.4-6.1-27.3-17.3-39.1    c-11.9-12.6-29.1-22.6-49.8-28.7C155.6,10.1,140.1,7.9,124.2,7.9L124.2,7.9z"/>
	</g>
	<g>
		<path fill-rule="evenodd" clip-rule="evenodd" fill="none" d="M167.8,22.1c-13.2-3.9-28-6.2-43.6-6.2v132.8    c15.6,0,30.4-2.3,43.6-6.2c41.6-12.4,61.4-38.3,61.4-60.2C229.2,60.4,209.3,34.5,167.8,22.1z"/>
	</g>
	<path fill="#FFFFFF" d="M215.3,76.8c-0.3,0-0.7,0-1,0l-103.3,0c-4.2,0-4.2,0-4.2-2.4l0-29.7c0-0.8,0.1-2.7,1.9-3.3   c9.2-2.8,22.5-1.9,37.9,1.7c9.2,2.2,19,6,29.3,11.4c3.2,1.7,6.7,3.2,10.4,3.2l15.4,0c0.9,0,2.6-0.4,4.1-1.1   c-6.7-8.4-16.9-16.2-30.7-22.1l-6.7,2.6c-0.7,0.3-4.7-1-12-3.8c-2.3-0.9-7.4-2.4-15.4-4.6c-9.7-2.7-19.4-3.8-28.7-3.7   C74.8,25,44,50.8,39.9,69.2c-2.1,9.6,0.2,17.9,3.2,19.7c1.1,0.7,5.2,1.1,10.3,1.1l52.1,0c2.3,0,2.2,2,2.3,3.8l0,31.1   c0,1.9-2.1,1.8-3.2,1.9l-8.8,0l0,9.8l6.5,1.7c7,1.1,14.4,1.8,22,1.8c11.6,0,22.7-1.4,32.8-4c1.2-0.4,2-1,2.6-1.5l0-7.8h-11.3   c-0.6,0-1-0.5-1-1.1l0-12c0-0.9,0-2.3,1.3-2.3h18.3c0.7,0,1,0.3,1,1v4.3h9.3l0-20.6h-9.6l0,4.1c-0.1,0.5,0,2.2-1.1,2.2l-17.9,0   c-1.3,0-1.3-1.4-1.3-2.3v-7.3c0-1.2,0-2.6,1.3-2.7l43.3,0l10.5,15.1l4.7,0.5c0.2-0.1,0.4-0.1,0.6-0.2c5.4-7.6,8-15.6,8-23   C215.8,80.5,215.6,78.7,215.3,76.8z"/>
</g>
</svg>